<svg height="285.2352153662677" width="350" style="width: 350px; height: 285.235px; position: absolute; top: 50%; left: 50%; transform: translate(-50%, -50%) scale(1); z-index: 0; cursor: pointer; overflow: visible;">
    <g id="SvgjsG1007" featurekey="cWd8YO-0" transform="matrix(1.9755315071678645,0,0,1.9755315071678645,76.22638631107972,-3.194435592570742)" fill="#ffffff"><g xmlns="http://www.w3.org/2000/svg"><path fill="none" d="M82.67,43.009c-0.141-8.006-1.45-15.845-3.789-22.875c0.168,9.119-3.535,11.656-10.422,12.933   c-2.003,0.372-3.629,0.543-5.121,0.544c-6.575,0-10.979-3.625-13.373-11.044c-2.397,7.42-6.803,11.044-13.374,11.044   c-1.49,0-3.119-0.173-5.121-0.544c-6.831-1.266-10.528-3.772-10.425-12.716c-2.293,6.977-3.581,14.739-3.72,22.658l32.64-0.024   L82.67,43.009z"></path><path fill="#ffffff" d="M85.362,44.945c0,0.07-0.002,0.143-0.002,0.214c0.045-0.211,0.072-0.446,0.072-0.715   c0-12.503-2.781-24.726-7.828-34.418l-4.38-8.409l1.812,9.306c0.09,0.464,0.176,0.935,0.256,1.405   c2.606,15.393-1.089,16.882-7.335,18.039c-1.833,0.339-3.3,0.498-4.62,0.498c-4.445,0-9.82-1.601-11.932-14.077l-1.458-8.661   l-1.425,8.665c-2.115,12.472-7.487,14.073-11.933,14.073c-1.318,0-2.786-0.159-4.619-0.498c-6.245-1.157-9.941-2.646-7.335-18.035   c0.07-0.407,0.143-0.809,0.218-1.208l1.757-9.282l-4.327,8.396c-4.978,9.655-7.718,21.805-7.718,34.207   c0,0.167,0.007,0.457,0.072,0.761c0-0.086-0.005-0.171-0.005-0.258h70.729V44.945z M21.046,20.351   c-0.103,8.943,3.594,11.45,10.426,12.716c2.002,0.372,3.628,0.544,5.12,0.544c6.569,0,10.975-3.624,13.372-11.044   c2.394,7.419,6.8,11.044,13.373,11.044c1.494,0,3.118-0.173,5.121-0.544c6.887-1.275,10.59-3.812,10.422-12.933   c2.339,7.03,3.65,14.869,3.789,22.875l-32.702-0.024l-32.64,0.024C17.466,35.09,18.753,27.328,21.046,20.351z"></path><path fill="#ffffff" d="M85.362,44.945H14.634c0,0.086,0.005,0.172,0.005,0.258c0.005,1.655,0.056,3.293,0.16,4.911   C16.518,77.201,31.623,98.385,50,98.385c18.409,0,33.536-21.115,35.211-48.271c0.099-1.586,0.146-3.321,0.149-4.955   C85.36,45.088,85.362,45.014,85.362,44.945z"></path></g></g>
</svg>