<svg width="600" height="539" viewBox="0 0 600 539" fill="none" xmlns="http://www.w3.org/2000/svg">
<rect width="200" height="200" fill="#BB86FC"/>
<rect x="200" width="200" height="200" fill="#3700B3"/>
<rect x="400" width="200" height="200" fill="#03DAC6"/>
<path d="M489.52 467.64C475.893 467.64 463.2 464.98 451.44 459.66C439.773 454.34 429.6 447.013 420.92 437.68C412.24 428.253 405.427 417.427 400.48 405.2C395.627 392.88 393.2 379.72 393.2 365.72C393.2 350.973 395.813 337.44 401.04 325.12C406.36 312.8 413.593 302.113 422.74 293.06C431.887 284.007 442.247 277.007 453.82 272.06C465.487 267.113 477.62 264.64 490.22 264.64C504.313 264.64 517.987 267.953 531.24 274.58C544.587 281.113 556.347 291.24 566.52 304.96L536 321.34C529.747 313.687 522.56 307.993 514.44 304.26C506.413 300.433 498.2 298.52 489.8 298.52C481.587 298.52 473.7 300.2 466.14 303.56C458.673 306.92 452 311.68 446.12 317.84C440.333 323.907 435.76 331.093 432.4 339.4C429.04 347.613 427.36 356.62 427.36 366.42C427.36 375.66 428.993 384.387 432.26 392.6C435.527 400.72 440.007 407.86 445.7 414.02C451.487 420.087 458.16 424.847 465.72 428.3C473.28 431.753 481.4 433.48 490.08 433.48C495.867 433.48 501.513 432.593 507.02 430.82C512.62 428.953 517.847 426.293 522.7 422.84C527.647 419.387 532.033 415.187 535.86 410.24C539.78 405.293 543.047 399.693 545.66 393.44H509.96V363.62H585.84C586.213 377.9 583.973 391.293 579.12 403.8C574.267 416.307 567.407 427.367 558.54 436.98C549.673 446.593 539.36 454.107 527.6 459.52C515.84 464.933 503.147 467.64 489.52 467.64Z" fill="white"/>
<path d="M264.7 449V392.3H208V355.7H264.7V299H301.3V355.7H358V392.3H301.3V449H264.7Z" fill="white"/>
<path d="M20 464V254H96.5C107.6 254 117.6 256.3 126.5 260.9C135.5 265.4 142.6 271.9 147.8 280.4C153.1 288.8 155.75 298.75 155.75 310.25C155.75 315.35 155 320.5 153.5 325.7C152 330.9 149.7 335.6 146.6 339.8C143.5 343.9 139.5 346.95 134.6 348.95C141.1 350.55 146.4 353.45 150.5 357.65C154.6 361.85 157.8 366.8 160.1 372.5C162.4 378.1 163.95 383.85 164.75 389.75C165.65 395.55 166.1 400.95 166.1 405.95C166.1 417.05 163.35 426.95 157.85 435.65C152.35 444.35 144.95 451.25 135.65 456.35C126.45 461.45 116.25 464 105.05 464H20ZM56.6 432.65H101.3C107.3 432.65 112.7 431.2 117.5 428.3C122.3 425.4 126.15 421.4 129.05 416.3C131.95 411.2 133.4 405.4 133.4 398.9C133.4 393.3 131.95 388 129.05 383C126.15 378 122.3 373.95 117.5 370.85C112.7 367.75 107.3 366.2 101.3 366.2H56.6V432.65ZM56.6 335.3H92.3C99.7 335.3 106 333 111.2 328.4C116.5 323.8 119.15 317.7 119.15 310.1C119.15 302 116.5 295.9 111.2 291.8C106 287.6 99.7 285.5 92.3 285.5H56.6V335.3Z" fill="white"/>
</svg>
